

<svg xmlns="http://www.w3.org/2000/svg" id="Layer_1" enable-background="new 0 0 495.937 495.937" height="512px" viewBox="0 0 495.937 495.937" width="512px" class=""><g><path d="m169.517 289.487c16.07 0 29.16-13.08 29.16-29.16v-90.84c0-16.08-13.08-29.17-29.16-29.17s-29.17 13.09-29.17 29.17v90.84c0 16.08 13.09 29.16 29.17 29.16z" data-original="#000000" class="active-path" data-old_color="#000000" fill="#1B5E20"/><path d="m99.317 297.747c13.8 0 25.03-11.23 25.03-25.04v-74.32c0-13.8-11.23-25.03-25.03-25.03s-25.03 11.23-25.03 25.03v74.32c0 13.81 11.23 25.04 25.03 25.04z" data-original="#000000" class="active-path" data-old_color="#000000" fill="#1B5E20"/><path d="m291.147 178.557c-3.305-3.304-8.685-3.355-12.01-.03-17.553 17.532-17.596 45.92-.14 63.48l28.2 28.64c9.56 9.71 14.83 22.56 14.83 36.19 0 4.01-2.97 7.4-6.94 7.93-57.25 7.62-100.41 57-100.41 114.85 0 4.42-3.58 8-8 8s-8-3.58-8-8c0-63.26 45.37-117.62 106.73-129.48-1.31-6.86-4.6-13.19-9.61-18.27l-28.18-28.61c-23.576-23.721-23.651-62.23.22-86.06 1.56-1.56 3.29-2.86 5.12-3.91l-37.96-141.73c-6.731-25.066-40.493-29.404-53.44-7.02-3.88 6.73-4.92 14.59-2.9 22.12l29.2 108.99c4.32 6.92 6.82 15.1 6.82 23.84v90.84c0 41.302-50.85 60.673-78.52 30.43-11.438 23.305-41.347 30.293-61.87 14.45v62.47c0 70.72 57.54 128.26 128.26 128.26h57.8c70.73 0 128.26-57.54 128.26-128.26v-53.92c0-20.57-6.77-40.1-19.26-56.05-14.415-15.569 24.633 23.683-78.2-79.15z" data-original="#000000" class="active-path" data-old_color="#000000" fill="#1B5E20"/><path d="m417.737 29.707c-12.964-22.347-46.709-18.052-53.43 7.04l-40.65 151.7 47.63 47.62 49.36-184.23c2.01-7.52.98-15.38-2.91-22.13z" data-original="#000000" class="active-path" data-old_color="#000000" fill="#1B5E20"/></g>
<style type="text/css">
	.st0{fill:#515151;}
</style>

 </svg>