<?xml version="1.0" standalone="no"?>
<!DOCTYPE svg PUBLIC "-//W3C//DTD SVG 20010904//EN"
 "http://www.w3.org/TR/2001/REC-SVG-20010904/DTD/svg10.dtd">
<svg version="1.0" xmlns="http://www.w3.org/2000/svg"
 width="700.000000pt" height="700.000000pt" viewBox="0 0 700.000000 700.000000"
 preserveAspectRatio="xMidYMid meet">
<metadata>
Created by potrace 1.11, written by Peter Selinger 2001-2013
</metadata>
<g transform="translate(0.000000,700.000000) scale(0.100000,-0.100000)"
fill="#000000" stroke="none">
<path d="M2810 6986 c-117 -34 -210 -113 -262 -224 -25 -53 -33 -84 -36 -148
-4 -71 1 -98 38 -235 23 -84 43 -158 45 -164 4 -18 17 -66 75 -285 32 -118 72
-267 89 -330 16 -63 60 -225 96 -360 36 -135 68 -253 70 -264 3 -10 18 -46 34
-80 70 -143 66 -84 69 -896 3 -657 1 -743 -14 -810 -54 -243 -217 -411 -465
-480 -107 -29 -266 -23 -369 15 -87 32 -103 41 -191 111 l-67 53 -35 -52
c-107 -160 -270 -254 -454 -262 -69 -3 -99 0 -191 19 -33 7 -128 52 -163 76
l-29 22 1 -509 c1 -536 6 -620 49 -798 116 -472 414 -876 831 -1127 178 -107
406 -195 579 -223 19 -3 73 -12 120 -20 123 -20 1132 -19 1275 1 255 36 472
110 690 237 38 22 74 44 80 49 5 5 47 36 93 69 86 63 226 196 302 288 51 61
156 212 171 244 5 12 21 42 35 67 42 75 125 277 139 340 1 8 8 33 14 55 48
181 55 287 55 850 -1 399 -4 495 -17 571 -42 234 -139 441 -286 613 -60 71
-1067 1078 -1097 1098 -29 19 -83 20 -116 2 -54 -30 -135 -144 -171 -239 -63
-171 -55 -342 24 -507 43 -89 63 -114 287 -342 250 -253 300 -309 337 -375 47
-85 81 -183 90 -258 4 -35 9 -70 10 -79 7 -35 -18 -100 -44 -118 -14 -10 -71
-26 -126 -36 -250 -44 -505 -158 -720 -324 -52 -40 -175 -159 -241 -232 -81
-90 -204 -298 -267 -449 -46 -110 -91 -284 -103 -400 -12 -107 -12 -113 -13
-178 -1 -56 -4 -66 -33 -97 -38 -40 -77 -50 -124 -30 -55 23 -69 56 -68 160 3
182 50 419 119 597 222 575 706 1006 1290 1149 50 12 92 23 94 25 2 2 -9 38
-24 81 -35 94 -62 127 -334 403 -112 113 -226 237 -255 275 -167 220 -211 526
-117 797 46 133 153 288 245 354 l30 21 -22 79 c-12 44 -46 169 -76 279 -47
174 -60 223 -72 270 -1 6 -14 54 -29 108 -14 54 -28 106 -30 115 -2 9 -38 143
-80 297 -65 242 -163 608 -178 670 -64 253 -104 331 -209 409 -84 63 -246 92
-348 62z"/>
<path d="M5453 6774 c-78 -16 -151 -55 -204 -108 -75 -76 -83 -97 -176 -441
-19 -71 -66 -247 -104 -390 -39 -143 -86 -318 -105 -390 -19 -71 -50 -188 -69
-260 -20 -71 -47 -173 -61 -225 -14 -52 -52 -196 -86 -320 -33 -124 -65 -242
-70 -262 l-10 -37 335 -336 336 -337 11 39 c6 21 22 79 35 128 13 50 53 200
90 335 37 135 68 253 70 263 2 9 15 59 30 110 14 50 48 178 76 282 28 105 57
215 65 245 9 30 33 120 54 200 21 80 86 323 144 540 59 217 109 405 112 417 2
12 8 33 13 45 17 48 13 163 -9 228 -70 206 -264 318 -477 274z"/>
<path d="M2274 5000 c-106 -34 -208 -120 -250 -209 -43 -90 -44 -107 -44 -822
0 -585 3 -694 16 -745 67 -257 348 -382 588 -262 56 28 131 102 166 163 54 95
56 118 54 860 -1 720 -1 721 -49 815 -88 171 -300 260 -481 200z"/>
<path d="M1283 4531 c-91 -34 -153 -91 -200 -181 l-28 -55 -3 -585 c-2 -411 0
-601 8 -638 23 -104 88 -185 191 -237 198 -101 444 19 494 240 13 59 14 1148
1 1205 -22 95 -92 183 -185 234 -72 39 -199 47 -278 17z"/>
</g>
</svg>
